<svg width="1068" height="358" viewBox="0 0 1068 358" fill="none" xmlns="http://www.w3.org/2000/svg">
<g clip-path="url(#clip0_475_2012)">
<path d="M217.019 129.509L207.16 104.86C201.136 89.8006 186.55 79.9255 170.33 79.9255H137.686C115.778 79.9255 98.019 97.6848 98.019 119.592V238.592C98.019 260.5 115.778 278.259 137.686 278.259H177.352M217.019 129.509H256.686C278.593 129.509 296.352 147.268 296.352 169.175V184.051M217.019 129.509H162.477" stroke="#00684A" stroke-width="19.8333" stroke-linecap="round" stroke-linejoin="round"/>
<path d="M296.352 248.509C262.352 242.843 262.352 242.843 256.686 208.843C251.019 242.843 251.019 242.843 217.019 248.509C251.019 254.176 251.019 254.176 256.686 288.176C262.352 254.176 262.352 254.176 296.352 248.509Z" fill="#00684A" stroke="#00684A" stroke-width="14.8749" stroke-linecap="round" stroke-linejoin="round"/>
<circle cx="306.268" cy="288.175" r="9.91663" fill="#00684A"/>
</g>
<path d="M439.168 216.848C428.149 216.848 418.481 214.525 410.163 209.88C401.845 205.235 395.31 198.699 390.556 190.273C385.911 181.74 383.589 171.747 383.589 160.297C383.589 149.062 385.857 139.232 390.394 130.806C395.039 122.38 401.737 115.844 410.487 111.199C419.237 106.446 429.716 104.07 441.922 104.07C447.756 104.07 453.157 104.718 458.126 106.014C463.203 107.31 467.956 109.201 472.385 111.685L473.034 134.857H468.659L460.557 118.491C459.26 115.898 458.018 114.008 456.83 112.82C455.642 111.631 454.075 110.767 452.131 110.227C450.726 109.687 449.376 109.363 448.08 109.255C446.783 109.039 445.109 108.931 443.057 108.931C436.251 108.931 430.256 110.713 425.07 114.278C419.885 117.735 415.834 123.244 412.918 130.806C410.109 138.367 408.705 148.198 408.705 160.297C408.705 178.553 411.675 191.786 417.617 199.996C423.666 208.098 431.714 212.149 441.76 212.149C444.137 212.149 446.189 211.824 447.918 211.176C449.97 210.852 451.375 210.042 452.131 208.746C452.887 207.341 453.265 205.613 453.265 203.561C453.265 199.132 453.211 194.324 453.103 189.139C453.103 183.846 453.103 179.039 453.103 174.718C453.103 170.505 450.888 167.912 446.459 166.94L439.168 165.32V161.917H483.89V165.32L481.946 165.806C479.893 166.454 478.327 167.426 477.247 168.722C476.166 169.911 475.626 171.585 475.626 173.746C475.626 178.067 475.572 182.496 475.464 187.033C475.464 191.462 475.464 195.945 475.464 200.482V207.449C469.847 210.474 464.121 212.797 458.288 214.417C452.563 216.037 446.189 216.848 439.168 216.848ZM530.277 133.884C537.083 133.884 542.916 135.289 547.777 138.097C552.638 140.906 556.365 144.795 558.958 149.764C561.658 154.625 563.009 160.243 563.009 166.616C563.009 168.02 562.955 169.371 562.847 170.667C562.739 171.855 562.523 172.989 562.199 174.07H513.425C513.533 185.196 515.586 193.19 519.583 198.051C523.688 202.912 529.629 205.343 537.407 205.343C542.808 205.343 547.183 204.479 550.532 202.75C553.881 200.914 556.959 198.375 559.768 195.135L562.361 197.565C559.12 203.507 554.691 208.152 549.073 211.5C543.564 214.741 536.975 216.362 529.305 216.362C521.635 216.362 514.884 214.741 509.05 211.5C503.217 208.26 498.626 203.615 495.277 197.565C492.036 191.408 490.416 184.062 490.416 175.528C490.416 166.67 492.306 159.162 496.087 153.005C499.976 146.847 504.945 142.148 510.995 138.908C517.152 135.559 523.58 133.884 530.277 133.884ZM529.467 138.584C526.334 138.584 523.58 139.502 521.203 141.338C518.935 143.067 517.098 146.199 515.694 150.736C514.397 155.165 513.641 161.431 513.425 169.533H542.43C543.618 158.622 543.186 150.736 541.134 145.875C539.081 141.014 535.192 138.584 529.467 138.584ZM611.771 216.362C603.777 216.362 596.755 214.687 590.706 211.338C584.764 207.99 580.119 203.237 576.771 197.079C573.53 190.922 571.909 183.576 571.909 175.042C571.909 166.508 573.638 159.162 577.095 153.005C580.659 146.847 585.413 142.148 591.354 138.908C597.403 135.559 604.209 133.884 611.771 133.884C619.332 133.884 626.084 135.559 632.025 138.908C638.075 142.148 642.828 146.847 646.285 153.005C649.849 159.054 651.632 166.4 651.632 175.042C651.632 183.576 649.957 190.976 646.609 197.241C643.368 203.399 638.777 208.152 632.836 211.5C626.894 214.741 619.873 216.362 611.771 216.362ZM611.771 211.824C615.66 211.824 618.792 210.798 621.169 208.746C623.653 206.585 625.436 202.858 626.516 197.565C627.596 192.272 628.136 184.872 628.136 175.366C628.136 165.752 627.596 158.298 626.516 153.005C625.436 147.604 623.653 143.877 621.169 141.824C618.792 139.664 615.66 138.584 611.771 138.584C607.882 138.584 604.749 139.664 602.372 141.824C599.996 143.877 598.213 147.604 597.025 153.005C595.945 158.298 595.405 165.752 595.405 175.366C595.405 184.872 595.945 192.272 597.025 197.565C598.213 202.858 599.996 206.585 602.372 208.746C604.749 210.798 607.882 211.824 611.771 211.824ZM693.903 216.362C687.53 216.362 681.805 214.957 676.727 212.149C671.65 209.232 667.653 204.803 664.737 198.861C661.928 192.812 660.524 185.142 660.524 175.852C660.524 166.562 662.144 158.838 665.385 152.681C668.626 146.415 672.947 141.716 678.348 138.584C683.749 135.451 689.69 133.884 696.172 133.884C700.061 133.884 703.788 134.371 707.353 135.343C710.917 136.207 714.05 137.557 716.751 139.394V118.329C716.751 116.06 716.373 114.44 715.616 113.468C714.968 112.387 713.564 111.577 711.403 111.037L708.163 110.389V107.31L736.357 100.343L738.464 101.801L737.816 124.648V202.588C737.816 204.641 738.194 206.369 738.95 207.774C739.706 209.07 741.056 209.988 743.001 210.528L744.783 211.014V214.093L717.885 215.875L716.427 209.07C713.51 211.338 710.161 213.121 706.38 214.417C702.599 215.713 698.44 216.362 693.903 216.362ZM702.815 208.908C707.461 208.908 711.836 207.395 715.941 204.371V144.093C711.944 141.608 707.623 140.366 702.978 140.366C697.684 140.366 693.147 143.175 689.366 148.792C685.585 154.301 683.695 163.213 683.695 175.528C683.695 187.843 685.477 196.485 689.042 201.454C692.607 206.423 697.198 208.908 702.815 208.908ZM792.639 216.362C784.645 216.362 777.623 214.687 771.574 211.338C765.632 207.99 760.987 203.237 757.639 197.079C754.398 190.922 752.778 183.576 752.778 175.042C752.778 166.508 754.506 159.162 757.963 153.005C761.528 146.847 766.281 142.148 772.222 138.908C778.271 135.559 785.077 133.884 792.639 133.884C800.201 133.884 806.952 135.559 812.893 138.908C818.943 142.148 823.696 146.847 827.153 153.005C830.718 159.054 832.5 166.4 832.5 175.042C832.5 183.576 830.826 190.976 827.477 197.241C824.236 203.399 819.645 208.152 813.704 211.5C807.762 214.741 800.741 216.362 792.639 216.362ZM792.639 211.824C796.528 211.824 799.66 210.798 802.037 208.746C804.522 206.585 806.304 202.858 807.384 197.565C808.464 192.272 809.005 184.872 809.005 175.366C809.005 165.752 808.464 158.298 807.384 153.005C806.304 147.604 804.522 143.877 802.037 141.824C799.66 139.664 796.528 138.584 792.639 138.584C788.75 138.584 785.617 139.664 783.241 141.824C780.864 143.877 779.082 147.604 777.893 153.005C776.813 158.298 776.273 165.752 776.273 175.366C776.273 184.872 776.813 192.272 777.893 197.565C779.082 202.858 780.864 206.585 783.241 208.746C785.617 210.798 788.75 211.824 792.639 211.824ZM880.443 216.362C873.097 216.362 866.454 214.795 860.512 211.662C854.571 208.422 849.872 203.777 846.415 197.727C843.066 191.57 841.392 184.116 841.392 175.366C841.392 166.616 843.282 159.162 847.063 153.005C850.844 146.847 855.867 142.148 862.133 138.908C868.506 135.559 875.474 133.884 883.035 133.884C889.193 133.884 894.432 134.911 898.753 136.963C903.074 139.016 906.369 141.662 908.637 144.903C910.906 148.036 912.04 151.384 912.04 154.949C912.04 157.974 911.122 160.297 909.286 161.917C907.557 163.537 905.289 164.347 902.48 164.347C899.455 164.347 896.971 163.267 895.026 161.107C893.19 158.946 892.11 156.192 891.785 152.843C891.677 150.682 891.677 148.846 891.785 147.334C892.002 145.821 892.002 144.363 891.785 142.959C891.353 141.122 890.597 139.88 889.517 139.232C888.545 138.584 887.14 138.259 885.304 138.259C878.498 138.259 873.259 141.014 869.586 146.523C866.022 151.925 864.239 160.729 864.239 172.935C864.239 183.414 866.238 191.462 870.234 197.079C874.231 202.696 880.443 205.505 888.869 205.505C893.838 205.505 897.943 204.587 901.184 202.75C904.424 200.806 907.395 198.051 910.096 194.486L912.688 196.431C909.988 202.912 905.829 207.882 900.211 211.338C894.702 214.687 888.113 216.362 880.443 216.362ZM948.371 216.362C943.186 216.362 938.486 215.767 934.274 214.579C930.169 213.499 926.226 211.933 922.445 209.88V190.76H926.82L931.681 199.996C933.733 203.993 936.056 206.963 938.649 208.908C941.349 210.852 944.752 211.824 948.857 211.824C953.934 211.824 957.985 210.744 961.01 208.584C964.034 206.315 965.547 203.291 965.547 199.51C965.547 196.053 964.412 193.244 962.144 191.084C959.875 188.923 955.825 186.925 949.991 185.088L942.861 182.82C936.488 180.875 931.411 177.959 927.63 174.07C923.957 170.073 922.121 165.104 922.121 159.162C922.121 154.517 923.363 150.304 925.848 146.523C928.332 142.634 931.951 139.556 936.704 137.287C941.457 135.019 947.237 133.884 954.042 133.884C958.471 133.884 962.522 134.425 966.195 135.505C969.976 136.477 973.649 137.881 977.213 139.718L976.241 157.056H972.028L967.005 147.82C965.277 144.363 963.494 141.986 961.658 140.69C959.929 139.286 957.229 138.584 953.556 138.584C949.667 138.584 946.21 139.61 943.186 141.662C940.269 143.607 938.811 146.361 938.811 149.926C938.811 153.275 940.053 156.03 942.537 158.19C945.022 160.243 949.019 162.187 954.528 164.023L961.496 166.13C969.382 168.614 974.999 171.909 978.348 176.014C981.697 180.119 983.371 185.034 983.371 190.76C983.371 198.429 980.292 204.641 974.135 209.394C968.085 214.039 959.497 216.362 948.371 216.362Z" fill="#00684A"/>
<path d="M847.111 289.93C846.026 291.066 844.683 291.635 843.081 291.635C841.479 291.635 840.11 291.066 838.973 289.93C837.888 288.793 837.346 287.424 837.346 285.822C837.346 284.272 837.914 282.929 839.051 281.792C840.188 280.604 841.531 280.009 843.081 280.009C844.631 280.009 845.974 280.604 847.111 281.792C848.248 282.929 848.816 284.272 848.816 285.822C848.816 287.424 848.248 288.793 847.111 289.93ZM874.329 291.79C868.956 291.79 864.435 289.826 860.766 285.9C857.149 281.973 855.341 277.219 855.341 271.639C855.341 266.059 857.149 261.305 860.766 257.379C864.435 253.452 868.956 251.489 874.329 251.489C877.171 251.489 879.806 252.134 882.234 253.426C884.714 254.666 886.626 256.268 887.969 258.231V232.888H894.635V291.015H887.969V285.047C886.626 287.01 884.714 288.638 882.234 289.93C879.806 291.17 877.171 291.79 874.329 291.79ZM875.337 285.667C879.16 285.667 882.312 284.324 884.792 281.637C887.272 278.95 888.512 275.618 888.512 271.639C888.512 267.661 887.272 264.328 884.792 261.641C882.312 258.955 879.16 257.611 875.337 257.611C871.461 257.611 868.284 258.955 865.804 261.641C863.324 264.328 862.084 267.661 862.084 271.639C862.084 275.618 863.324 278.95 865.804 281.637C868.284 284.324 871.461 285.667 875.337 285.667ZM923.689 291.79C918.057 291.79 913.381 289.878 909.661 286.055C905.993 282.231 904.158 277.426 904.158 271.639C904.158 265.801 905.941 260.995 909.506 257.224C913.123 253.4 917.902 251.489 923.844 251.489C929.837 251.489 934.539 253.607 937.949 257.844C941.359 262.08 942.858 267.273 942.444 273.422H910.901C911.004 276.935 912.296 279.88 914.776 282.257C917.256 284.582 920.253 285.744 923.766 285.744C929.037 285.744 932.782 283.574 935.004 279.234H941.824C940.843 282.851 938.75 285.848 935.547 288.225C932.343 290.601 928.391 291.79 923.689 291.79ZM931.284 260.169C929.166 258.309 926.608 257.379 923.611 257.379C920.615 257.379 917.928 258.283 915.551 260.091C913.226 261.9 911.779 264.586 911.211 268.151H935.392C934.772 264.638 933.402 261.977 931.284 260.169ZM963.472 291.015L945.569 252.264H953.009L966.262 281.637L979.515 252.264H986.955L969.052 291.015H963.472Z" fill="#00684A"/>
<defs>
<clipPath id="clip0_475_2012">
<rect width="238" height="238" fill="white" transform="translate(78.186 60.093)"/>
</clipPath>
</defs>
</svg>
